<?xml version="1.0" standalone="no"?><!DOCTYPE svg PUBLIC "-//W3C//DTD SVG 1.1//EN" "http://www.w3.org/Graphics/SVG/1.1/DTD/svg11.dtd"><svg class="icon" width="16px" height="16.00px" viewBox="0 0 1024 1024" version="1.1" xmlns="http://www.w3.org/2000/svg"><path fill="#000000" d="M863.232 960c6.144 31.744 25.6 51.2 57.344 57.344 38.4 6.144 64-18.944 70.144-57.344V58.368C984.576 26.624 952.32-5.632 920.576 1.024c-31.744 0-57.344 31.744-57.344 70.144v888.832z"  /><path fill="#000000" d="M914.432 486.912c12.8 25.6 6.144 64-18.944 76.8L108.544 1017.856c-6.144 6.144-12.8 6.144-25.6 6.144-25.6 0-51.2-25.6-51.2-51.2V58.368c0-12.8 0-18.944 6.144-25.6 18.944-31.744 51.2-38.4 76.8-25.6L901.12 461.312c7.168 6.144 13.312 12.8 13.312 25.6z"  /></svg>