<?xml version="1.0" standalone="no"?><!DOCTYPE svg PUBLIC "-//W3C//DTD SVG 1.1//EN" "http://www.w3.org/Graphics/SVG/1.1/DTD/svg11.dtd"><svg class="icon" width="16px" height="16.00px" viewBox="0 0 1024 1024" version="1.1" xmlns="http://www.w3.org/2000/svg"><path fill="#000000" d="M703.936 832C668.544 832.128 640 802.368 640 765.76L640 258.432C640 221.568 668.672 192 704 192c35.328-0.192 64 29.76 64 66.304l0 507.392C768 802.368 739.328 832.128 703.936 832zM384 765.696 384 258.304C384 221.76 355.328 191.808 320 192 284.672 192 256 221.568 256 258.432l0 507.328C256 802.368 284.544 832.128 319.936 832 355.328 832.128 384 802.368 384 765.696z"  /></svg>