<?xml version="1.0" standalone="no"?><!DOCTYPE svg PUBLIC "-//W3C//DTD SVG 1.1//EN" "http://www.w3.org/Graphics/SVG/1.1/DTD/svg11.dtd"><svg class="icon" width="16px" height="16.00px" viewBox="0 0 1024 1024" version="1.1" xmlns="http://www.w3.org/2000/svg"><path fill="#000000" d="M159.897123 71.166435C159.897123 32.797299 134.317698 0.823018 102.343418 0.823018 70.369137-5.571838 38.394856 26.402443 32 58.376723V960.051439c6.394856 38.369137 31.974281 63.948561 70.343418 57.553705 31.974281-6.394856 51.158849-25.579425 57.553705-57.553705V71.166435z"  /><path fill="#000000" d="M121.527986 461.25266L908.095291 7.217874c25.579425-12.789712 57.553705-6.394856 76.738274 25.579425 6.394856 6.394856 6.394856 12.789712 6.394856 25.579424v914.464428c0 25.579425-25.579425 51.158849-51.158849 51.158849-12.789712 0-19.184568 0-25.579425-6.394856L127.922842 563.570358c-25.579425-12.789712-31.974281-51.158849-19.184568-76.738274 0-12.789712 6.394856-19.184568 12.789712-25.579424z"  /></svg>