<?xml version="1.0" standalone="no"?><!DOCTYPE svg PUBLIC "-//W3C//DTD SVG 1.1//EN" "http://www.w3.org/Graphics/SVG/1.1/DTD/svg11.dtd"><svg class="icon" width="16px" height="16.00px" viewBox="0 0 1024 1024" version="1.1" xmlns="http://www.w3.org/2000/svg"><path d="M513.69 417.21c-79 0-143.31-64.29-143.31-143.31a25 25 0 0 1 50 0 93.31 93.31 0 1 0 186.62 0 25 25 0 0 1 50 0c0 79.02-64.29 143.31-143.31 143.31z" fill="#a1a1a3" /><path d="M702 843.59H325.39a71 71 0 0 1-71-71V436.05l-77.58-71a56.86 56.86 0 0 1-1.48-82.48l54.31-53.41a211.08 211.08 0 0 1 148.84-60.91h270.38a211.05 211.05 0 0 1 148.83 60.91L852 282.57a56.86 56.86 0 0 1-1.48 82.48l-77.58 71v336.58A71 71 0 0 1 702 843.59zM378.52 218.25a161.36 161.36 0 0 0-113.78 46.57l-54.31 53.4a6.86 6.86 0 0 0 0.17 9.95l85.71 78.43a25 25 0 0 1 8.12 18.4v347.63a21 21 0 0 0 21 21H702a21 21 0 0 0 21-21V425a25 25 0 0 1 8.12-18.44l85.7-78.43a6.85 6.85 0 0 0 0.18-9.95l-54.31-53.4a161.36 161.36 0 0 0-113.78-46.57z" fill="#a1a1a3" /></svg>