<?xml version="1.0" standalone="no"?><!DOCTYPE svg PUBLIC "-//W3C//DTD SVG 1.1//EN" "http://www.w3.org/Graphics/SVG/1.1/DTD/svg11.dtd"><svg class="icon" width="16px" height="16.00px" viewBox="0 0 1024 1024" version="1.1" xmlns="http://www.w3.org/2000/svg"><path fill="#a1a1a3" d="M843.82071011 785.54551637l-114.40430193-114.66062051c41.48865707-54.01214976 66.37952114-121.45888825 66.37952113-194.71240761 0-176.6477733-143.40325376-320.28404395-319.57334243-320.28404395S156.64924445 299.60510578 156.64924445 476.25986958c0 176.6477733 143.32169785 320.28404395 319.57334243 320.28404395 73.92344291 0 141.89446941-25.5328256 196.11633437-67.95238514l114.14798336 114.40430194c7.88179627 7.89927253 18.27434951 11.93046471 28.66690275 11.93046471s20.78510649-3.94963627 28.66690275-11.93046471c15.83932302-15.86961522 15.83932302-41.5760384 0-57.45031396zM237.69135331 476.25986958c0-131.79318727 107.03514283-239.06134699 238.53123357-239.06134699S714.74799502 344.46668231 714.74799502 476.25986958s-107.02931741 239.06134699-238.52540814 239.06134699-238.53123357-107.2693248-238.53123357-239.06134699z m0 0"  /></svg>