<?xml version="1.0" standalone="no"?><!DOCTYPE svg PUBLIC "-//W3C//DTD SVG 1.1//EN" "http://www.w3.org/Graphics/SVG/1.1/DTD/svg11.dtd"><svg class="icon" width="16px" height="4.91px" viewBox="0 0 3337 1024" version="1.1" xmlns="http://www.w3.org/2000/svg"><path d="M2313.071256 62.0904H834.376152L773.916644 0H260.709784L0 268.980738 513.20686 786.323075l104.085877-103.503415 1695.836765-0.582462c132.218769 1.689138 240.614861-130.005415 249.177046-287.677753 9.377631-172.874584-103.619907-333.342738-249.177046-332.527291zM86.903261 268.980738l206.948584-206.948584h434.574553l207.123323 206.948584-422.109876 422.109876z" fill="#FFA405" /><path d="M681.072275 205.900153a29.123077 29.123077 0 0 0-20.910369 47.412369l-3.087046 12.755908a58.246154 58.246154 0 0 1-114.395446-8.795169l-2.854061-36.229108a42.810923 42.810923 0 1 0-47.121139 0l-2.854061 36.229108a58.246154 58.246154 0 0 1-114.395446 8.795169l-3.0288-12.814154a29.123077 29.123077 0 1 0-34.656462 8.503939l26.036031 183.766615h304.918615l26.03603-183.708369a29.123077 29.123077 0 0 0-13.571353-55.916308zM622.709629 504.702922H408.189045a45.199015 45.199015 0 0 1-45.199015-45.199015h304.918615a45.199015 45.199015 0 0 1-45.199016 45.199015z" fill="#FFA405" /><path d="M320.470338 234.906738a29.123077 29.123077 0 1 0 29.123077-29.123077 29.123077 29.123077 0 0 0-29.123077 29.123077zM681.072275 206.016646a29.123077 29.123077 0 0 0-20.910369 47.412369l-3.087046 12.755907a58.246154 58.246154 0 0 1-114.395446-8.795169l-2.854061-36.229107a42.636185 42.636185 0 0 0-23.647939-78.515816v302.88h152.488431l26.03603-183.708369a29.123077 29.123077 0 0 0-13.571354-55.974554z" fill="#FFA405" /><path d="M653.696583 235.139723a29.123077 29.123077 0 1 0 29.123077-29.123077 29.123077 29.123077 0 0 0-29.123077 29.123077z m-180.563076-50.44117a43.335138 43.335138 0 1 0 21.667569-37.510523 43.335138 43.335138 0 0 0-21.784062 37.510523zM515.420214 459.329168v45.199015h108.570831a44.092338 44.092338 0 0 0 44.150584-44.150584v-1.048431z" fill="#FFA405" /><path d="M371.027999 214.928307a64.070769 64.070769 0 0 1-39.3744 43.043908 28.7736 28.7736 0 0 0 18.114554 6.465323 29.123077 29.123077 0 0 0 21.2016-49.450985z m333.284492 0a65.235692 65.235692 0 0 1-40.1316 42.111969 29.123077 29.123077 0 0 0 48.169569-22.133538 29.5308 29.5308 0 0 0-7.979723-19.6872zM546.52366 153.420369a25.220585 25.220585 0 0 1 1.456154 8.154461c0 20.386154-25.453569 36.928061-56.731754 36.928062a82.301815 82.301815 0 0 1-16.308923-1.572646 43.276892 43.276892 0 1 0 71.642769-43.451631z" fill="#FFA405" /><path d="M335.090122 222.325569c0.582462 1.048431 2.446338 1.223169 4.834431 0.524215a17.765077 17.765077 0 0 0 6.873046-3.960738c1.805631-1.747385 2.562831-3.436523 1.980369-4.484954s-2.446338-1.223169-4.83443-0.524216a17.473846 17.473846 0 0 0-6.8148 3.960739c-1.922123 1.805631-2.679323 3.553015-2.038616 4.484954z m352.680461-1.048431a12.406431 12.406431 0 0 0 6.698308 1.980369c1.689138 0 2.388092-1.281415 1.689138-2.854061a12.1152 12.1152 0 0 0-5.125661-4.834431 12.522923 12.522923 0 0 0-6.698308-1.980369c-1.747385 0-2.388092 1.281415-1.689139 2.854061a12.056954 12.056954 0 0 0 5.067416 4.892677z m-188.5428-66.983077c0 2.329846 7.339015 4.193723 16.425416 4.193723s16.425415-1.922123 16.425415-4.193723-7.339015-4.193723-16.425415-4.193723-16.425415 1.922123-16.425416 4.251969z" fill="#FFFFFF" /><path d="M529.399291 373.649076h-24.579877a10.018338 10.018338 0 0 1 0-20.036677h24.346892a10.018338 10.018338 0 1 1 0 20.036677z" fill="#FFA405" /><path d="M529.10806 353.554153h-13.105384v20.153169h13.105384a10.076585 10.076585 0 0 0 0-20.153169zM2560.559163 251.448646l2.2716 1.80563z m-1387.831104 2.621076l4.135477-3.261784a39.840369 39.840369 0 0 0-11.649231 12.930646z" fill="#FFA405" /><path d="M1618.369381 550.426153l1.281415 8.62043a38.034738 38.034738 0 0 0-1.630892-9.8436z m-73.157169 18.813507l-0.990185-6.756554a37.976492 37.976492 0 0 0 1.5144 8.736923z"  /><path d="M1249.263505 168.040153h904.912244v439.059507H1249.263505z" fill="#FFFFFF" /><path d="M1919.909718 214.695323h-53.702953l-28.715354 162.448522h48.693784a125.170984 125.170984 0 0 0 77.059662-21.667569 94.941231 94.941231 0 0 0 35.996123-62.148646q13.862585-78.574061-79.389508-78.574061z" fill="#FFA405" /><path d="M2100.356303 659.754183H1195.910028v-459.562153l4.193723-23.880923a68.497477 68.497477 0 0 0-4.193723-2.155107V87.718707h904.388028a67.507292 67.507292 0 0 1 67.3908 67.332554v437.428614a67.507292 67.507292 0 0 1-67.332553 67.274308zM1559.890242 531.204922l-7.86323 44.441815h131.112092l7.86323-44.441815h-39.141415l56.091046-318.606461h39.141415l7.863231-44.383569h-131.053846l-7.804984 44.383569h39.083169l-56.149292 318.606461h-39.141416z m261.758215-362.757045l-71.875754 407.140614h52.421539l26.909723-152.255446H1888.806272a172.059138 172.059138 0 0 0 106.008-34.947692A151.44 151.44 0 0 0 2054.633072 291.230769a99.018461 99.018461 0 0 0-19.978431-90.980493 130.646123 130.646123 0 0 0-97.038092-31.802399h-115.909846z m-571.161783 0l75.137538 407.140614h58.246154l221.743107-407.140614h-56.382277l-147.071538 288.02723a184.989784 184.989784 0 0 0-36.636831 66.866584l-1.339661 0.465969c0-4.018985 0.349477-7.455508 0.349477-11.008523a160.176923 160.176923 0 0 0-2.038616-25.977784l-53.586461-318.373476z" fill="#FFA405" /></svg>