<?xml version="1.0" standalone="no"?><!DOCTYPE svg PUBLIC "-//W3C//DTD SVG 1.1//EN" "http://www.w3.org/Graphics/SVG/1.1/DTD/svg11.dtd"><svg class="icon" width="16px" height="14.41px" viewBox="0 0 1137 1024" version="1.1" xmlns="http://www.w3.org/2000/svg"><path d="M279.111111 0h579.555556a177.777778 177.777778 0 0 1 94.222222 28.444444l48 33.777778a27.555556 27.555556 0 0 1 8.888889 40 35.555556 35.555556 0 0 1-23.111111 11.555556H151.111111A26.666667 26.666667 0 0 1 122.666667 88.888889 35.555556 35.555556 0 0 1 133.333333 62.222222l51.555556-33.777778A177.777778 177.777778 0 0 1 279.111111 0z" fill="#a3a3a6" /><path d="M56.888889 170.666667h1024a56.888889 56.888889 0 0 1 56.888889 56.888889v739.555555a56.888889 56.888889 0 0 1-56.888889 56.888889H56.888889a56.888889 56.888889 0 0 1-56.888889-56.888889V227.555556a56.888889 56.888889 0 0 1 56.888889-56.888889z m533.333333 702.222222L822.222222 702.222222a42.666667 42.666667 0 1 0-51.555555-68.444444L611.555556 753.777778V384a42.666667 42.666667 0 0 0-88.888889 0v369.777778L367.111111 634.666667a42.666667 42.666667 0 1 0-51.555555 68.444444l227.555555 169.777778a33.777778 33.777778 0 0 0 23.111111 5.333333 53.333333 53.333333 0 0 0 23.111111-5.333333z" fill="#a3a3a6" /></svg>