<?xml version="1.0" standalone="no"?><!DOCTYPE svg PUBLIC "-//W3C//DTD SVG 1.1//EN" "http://www.w3.org/Graphics/SVG/1.1/DTD/svg11.dtd"><svg class="icon" width="16px" height="16.00px" viewBox="0 0 1024 1024" version="1.1" xmlns="http://www.w3.org/2000/svg"><path fill="#a3a3a6" d="M853.333333 85.333333H341.333333c-47.146667 0-85.333333 38.186667-85.333333 85.333334v512c0 47.146667 38.186667 85.333333 85.333333 85.333333h512c47.146667 0 85.333333-38.186667 85.333334-85.333333V170.666667c0-47.146667-38.186667-85.333333-85.333334-85.333334z m-85.333333 213.333334h-128v234.666666c0 58.88-47.786667 106.666667-106.666667 106.666667s-106.666667-47.786667-106.666666-106.666667 47.786667-106.666667 106.666666-106.666666c24.106667 0 46.08 8.32 64 21.76V213.333333h170.666667v85.333334zM170.666667 256H85.333333v597.333333c0 47.146667 38.186667 85.333333 85.333334 85.333334h597.333333v-85.333334H170.666667V256z"  /></svg>