<?xml version="1.0" standalone="no"?><!DOCTYPE svg PUBLIC "-//W3C//DTD SVG 1.1//EN" "http://www.w3.org/Graphics/SVG/1.1/DTD/svg11.dtd"><svg class="icon" width="16px" height="16.00px" viewBox="0 0 1024 1024" version="1.1" xmlns="http://www.w3.org/2000/svg"><path fill="#ffffff" d="M700.631579 1013.221053h258.694737c26.947368 0 53.894737-26.947368 53.894737-53.894737V700.631579c0-26.947368-26.947368-53.894737-53.894737-53.894737H700.631579c-26.947368 0-53.894737 26.947368-53.894737 53.894737v258.694737c0 26.947368 26.947368 53.894737 53.894737 53.894737zM910.821053 0C970.105263 0 1024 53.894737 1024 113.178947v344.926316h-129.347368v-269.473684c0-32.336842-26.947368-59.284211-59.284211-59.284211h-646.736842c-32.336842 0-59.284211 26.947368-59.284211 59.284211v646.736842c0 32.336842 26.947368 59.284211 59.284211 59.284211h264.08421V1024H113.178947C53.894737 1024 0 970.105263 0 905.431579V113.178947C0 53.894737 53.894737 0 113.178947 0h797.642106z" /></svg>